<svg width="18" height="25" viewBox="0 0 18 14" fill="none" xmlns="http://www.w3.org/2000/svg">
<path d="M1.61958 5.0899C3.62613 3.24532 6.29462 2.22911 9.13544 2.22911C11.9763 2.22911 14.6448 3.24532 16.6513 5.0899C16.7223 5.15572 16.8118 5.18752 16.9013 5.18752C17.0011 5.18752 17.101 5.14759 17.1735 5.06771C17.3118 4.91757 17.3014 4.68311 17.1513 4.54481C15.0086 2.5745 12.1619 1.4895 9.13544 1.4895C6.10898 1.4895 3.26224 2.5745 1.11961 4.54555C0.969466 4.68385 0.959111 4.91757 1.09742 5.06845C1.23572 5.21933 1.46944 5.22894 1.61958 5.0899Z" stroke="#30bcb0"/>
<path d="M14.8945 7.40642C14.9936 7.40642 15.0927 7.36648 15.1651 7.28808C15.3042 7.13794 15.2953 6.90422 15.1459 6.76518C13.5365 5.27118 11.402 4.448 9.13515 4.448C6.86826 4.448 4.73377 5.27118 3.12439 6.76592C2.97499 6.90496 2.96611 7.13868 3.10516 7.28882C3.24346 7.43822 3.47792 7.44635 3.62806 7.30805C5.09987 5.94052 7.05538 5.1876 9.13515 5.1876C11.2149 5.1876 13.1704 5.94052 14.6422 7.30731C14.7133 7.37387 14.8042 7.40642 14.8945 7.40642Z" stroke="#30bcb0"/>
<path d="M12.8911 9.62506C12.9888 9.62506 13.0864 9.5866 13.1596 9.50969C13.3001 9.36176 13.2942 9.12731 13.1456 8.98679C12.0724 7.96761 10.6479 7.40625 9.13544 7.40625C7.62294 7.40625 6.19847 7.96761 5.1253 8.98679C4.97738 9.12731 4.97146 9.36176 5.11125 9.50969C5.25251 9.65835 5.48697 9.66426 5.63415 9.52374C6.56975 8.63547 7.81302 8.14585 9.13544 8.14585C10.4578 8.14585 11.7011 8.63547 12.6367 9.52374C12.7085 9.59178 12.8002 9.62506 12.8911 9.62506Z" stroke="#30bcb0"/>
<path d="M7.15625 11.844C7.15625 12.9359 8.04353 13.8232 9.13546 13.8232V12.8232C8.59582 12.8232 8.15625 12.3836 8.15625 11.844H7.15625ZM9.13546 9.86475C8.04353 9.86475 7.15625 10.752 7.15625 11.844H8.15625C8.15625 11.3043 8.59582 10.8647 9.13546 10.8647V9.86475ZM11.1147 11.844C11.1147 10.752 10.2274 9.86475 9.13546 9.86475V10.8647C9.6751 10.8647 10.1147 11.3043 10.1147 11.844H11.1147ZM9.13546 13.8232C10.2274 13.8232 11.1147 12.9359 11.1147 11.844H10.1147C10.1147 12.3836 9.6751 12.8232 9.13546 12.8232V13.8232ZM9.37496 11.844C9.37496 11.9754 9.26674 12.0836 9.13536 12.0836V13.0836C9.81903 13.0836 10.375 12.5276 10.375 11.844H9.37496ZM9.13536 11.6044C9.26674 11.6044 9.37496 11.7126 9.37496 11.844H10.375C10.375 11.1603 9.81903 10.6044 9.13536 10.6044V11.6044ZM8.89576 11.844C8.89576 11.7126 9.00398 11.6044 9.13536 11.6044V10.6044C8.4517 10.6044 7.89576 11.1603 7.89576 11.844H8.89576ZM9.13536 12.0836C9.00398 12.0836 8.89576 11.9754 8.89576 11.844H7.89576C7.89576 12.5276 8.4517 13.0836 9.13536 13.0836V12.0836Z" fill="#30bcb0"/>
</svg>
